<svg width="130" height="130" viewBox="0 0 130 130" fill="none" xmlns="http://www.w3.org/2000/svg">
    <path d="M89.375 50.9167L40.625 22.8042" stroke="black" stroke-width="2" stroke-linecap="round" stroke-linejoin="round" />
    <path d="M113.75 86.6667V43.3334C113.748 41.4336 113.247 39.5678 112.296 37.923C111.345 36.2782 109.979 34.9124 108.333 33.9625L70.4167 12.2959C68.7698 11.345 66.9016 10.8445 65 10.8445C63.0984 10.8445 61.2302 11.345 59.5833 12.2959L21.6667 33.9625C20.0214 34.9124 18.6549 36.2782 17.7042 37.923C16.7534 39.5678 16.2519 41.4336 16.25 43.3334V86.6667C16.2519 88.5665 16.7534 90.4323 17.7042 92.0771C18.6549 93.7218 20.0214 95.0877 21.6667 96.0375L59.5833 117.704C61.2302 118.655 63.0984 119.156 65 119.156C66.9016 119.156 68.7698 118.655 70.4167 117.704L108.333 96.0375C109.979 95.0877 111.345 93.7218 112.296 92.0771C113.247 90.4323 113.748 88.5665 113.75 86.6667Z" stroke="black" stroke-width="2" stroke-linecap="round" stroke-linejoin="round" />
    <path d="M17.7125 37.7L65 65.0541L112.288 37.7" stroke="black" stroke-width="2" stroke-linecap="round" stroke-linejoin="round" />
    <path d="M65 119.6V65" stroke="black" stroke-width="2" stroke-linecap="round" stroke-linejoin="round" />
</svg>
    