<svg width="20" height="20" viewBox="0 0 20 20" fill="none" xmlns="http://www.w3.org/2000/svg">
    <path d="M14.1797 13.3203V11.6797H19.1797V13.3203C19.1797 13.8672 19.0234 14.349 18.7109 14.7656C18.3984 15.1823 17.9948 15.4818 17.5 15.6641V19.1797H15.8203V15.6641C14.7266 15.2734 14.1797 14.4922 14.1797 13.3203ZM10.8203 1.67969V5H12.5V10H7.5V5H9.17969V1.67969C9.17969 1.44531 9.25781 1.25 9.41406 1.09375C9.57031 0.911458 9.76562 0.820312 10 0.820312C10.2344 0.820312 10.4297 0.911458 10.5859 1.09375C10.7422 1.25 10.8203 1.44531 10.8203 1.67969ZM17.5 5H19.1797V10H14.1797V5H15.8203V1.67969C15.8203 1.44531 15.8984 1.25 16.0547 1.09375C16.237 0.911458 16.4453 0.820312 16.6797 0.820312C16.9141 0.820312 17.1094 0.911458 17.2656 1.09375C17.4219 1.25 17.5 1.44531 17.5 1.67969V5ZM0.820312 13.3203V11.6797H5.82031V13.3203C5.82031 14.4922 5.27344 15.2734 4.17969 15.6641V19.1797H2.5V15.6641C2.00521 15.4818 1.60156 15.1823 1.28906 14.7656C0.976562 14.349 0.820312 13.8672 0.820312 13.3203ZM7.5 13.3203V11.6797H12.5V13.3203C12.5 13.8672 12.3438 14.349 12.0312 14.7656C11.7188 15.1823 11.3151 15.4818 10.8203 15.6641V19.1797H9.17969V15.6641C8.6849 15.4818 8.28125 15.1823 7.96875 14.7656C7.65625 14.349 7.5 13.8672 7.5 13.3203ZM4.17969 1.67969V5H5.82031V10H0.820312V5H2.5V1.67969C2.5 1.44531 2.57812 1.25 2.73438 1.09375C2.89062 0.911458 3.08594 0.820312 3.32031 0.820312C3.55469 0.820312 3.75 0.911458 3.90625 1.09375C4.08854 1.25 4.17969 1.44531 4.17969 1.67969Z" fill="white" />
</svg>
    