<svg width="23" height="23" viewBox="0 0 23 23" fill="none" xmlns="http://www.w3.org/2000/svg">
    <path d="M10.5417 3.83337H3.83341C3.32508 3.83337 2.83757 4.03531 2.47813 4.39475C2.11868 4.7542 1.91675 5.24171 1.91675 5.75004V19.1667C1.91675 19.675 2.11868 20.1625 2.47813 20.522C2.83757 20.8814 3.32508 21.0834 3.83341 21.0834H17.2501C17.7584 21.0834 18.2459 20.8814 18.6054 20.522C18.9648 20.1625 19.1667 19.675 19.1667 19.1667V12.4584" stroke="#1BB55C" stroke-width="2" stroke-linecap="round" stroke-linejoin="round" />
    <path d="M17.7292 2.39585C18.1105 2.0146 18.6276 1.80042 19.1667 1.80042C19.7059 1.80042 20.223 2.0146 20.6042 2.39585C20.9855 2.7771 21.1997 3.29418 21.1997 3.83335C21.1997 4.37251 20.9855 4.8896 20.6042 5.27085L11.5001 14.375L7.66675 15.3333L8.62508 11.5L17.7292 2.39585Z" stroke="#1BB55C" stroke-width="2" stroke-linecap="round" stroke-linejoin="round" />
</svg>
    