<svg width="29" height="24" viewBox="0 0 29 24" fill="none" xmlns="http://www.w3.org/2000/svg">
    <g clip-path="url(#clip0_9_634)">
        <path d="M14 8C15.1 8 16 7.1 16 6C16 4.9 15.1 4 14 4C12.9 4 12 4.9 12 6C12 7.1 12.9 8 14 8ZM14 10C12.9 10 12 10.9 12 12C12 13.1 12.9 14 14 14C15.1 14 16 13.1 16 12C16 10.9 15.1 10 14 10ZM14 16C12.9 16 12 16.9 12 18C12 19.1 12.9 20 14 20C15.1 20 16 19.1 16 18C16 16.9 15.1 16 14 16Z" fill="white" />
    </g>
    <defs>
        <clipPath id="clip0_9_634">
            <rect width="28.5333" height="24" fill="white" />
        </clipPath>
    </defs>
</svg>
    