<svg width="63" height="50" viewBox="0 0 63 50" fill="none" xmlns="http://www.w3.org/2000/svg">
    <path d="M63 25.7812V24.2188C63 23.3555 62.2952 22.6562 61.425 22.6562H33.8625V18.75H40.95C42.6894 18.75 44.1 17.3506 44.1 15.625V3.125C44.1 1.39941 42.6894 0 40.95 0H22.05C20.3106 0 18.9 1.39941 18.9 3.125V15.625C18.9 17.3506 20.3106 18.75 22.05 18.75H29.1375V22.6562H1.575C0.704813 22.6562 0 23.3555 0 24.2188V25.7812C0 26.6445 0.704813 27.3438 1.575 27.3438H11.8125V31.25H6.3C4.56061 31.25 3.15 32.6494 3.15 34.375V46.875C3.15 48.6006 4.56061 50 6.3 50H22.05C23.7894 50 25.2 48.6006 25.2 46.875V34.375C25.2 32.6494 23.7894 31.25 22.05 31.25H16.5375V27.3438H46.4625V31.25H40.95C39.2106 31.25 37.8 32.6494 37.8 34.375V46.875C37.8 48.6006 39.2106 50 40.95 50H56.7C58.4394 50 59.85 48.6006 59.85 46.875V34.375C59.85 32.6494 58.4394 31.25 56.7 31.25H51.1875V27.3438H61.425C62.2952 27.3438 63 26.6445 63 25.7812ZM25.2 12.5V6.25H37.8V12.5H25.2ZM18.9 43.75H9.45V37.5H18.9V43.75ZM53.55 43.75H44.1V37.5H53.55V43.75Z" fill="black" />
</svg>
    