<svg width="20" height="19" viewBox="0 0 20 19" fill="none" xmlns="http://www.w3.org/2000/svg">
    <path d="M11.2891 17.6367C10.9453 17.9805 10.5156 18.1523 10 18.1523C9.48438 18.1523 9.04036 17.9805 8.66797 17.6367C8.32422 17.2643 8.15234 16.8346 8.15234 16.3477H11.8047C11.8047 16.8633 11.6328 17.293 11.2891 17.6367ZM15.5 8.09766V12.6523L17.3477 14.5V15.4023H2.65234V14.5L4.5 12.6523V8.09766C4.5 6.66536 4.85807 5.41927 5.57422 4.35938C6.31901 3.29948 7.33594 2.61198 8.625 2.29688V1.65234C8.625 1.27995 8.75391 0.964844 9.01172 0.707031C9.26953 0.420573 9.59896 0.277344 10 0.277344C10.401 0.277344 10.7305 0.420573 10.9883 0.707031C11.2461 0.964844 11.375 1.27995 11.375 1.65234V2.29688C12.6641 2.61198 13.6667 3.29948 14.3828 4.35938C15.1276 5.41927 15.5 6.66536 15.5 8.09766ZM17.3047 7.625C17.2474 6.59375 16.9036 5.50521 16.2734 4.35938C15.6432 3.21354 14.9128 2.33984 14.082 1.73828L15.3711 0.449219C17.7487 2.28255 19.0091 4.67448 19.1523 7.625H17.3047ZM5.96094 1.73828C5.13021 2.33984 4.38542 3.21354 3.72656 4.35938C3.09635 5.50521 2.7526 6.59375 2.69531 7.625H0.847656C0.990885 4.67448 2.2513 2.28255 4.62891 0.449219L5.96094 1.73828Z" fill="white" />
</svg>
    