<svg width="80" height="80" viewBox="0 0 80 80" fill="none" xmlns="http://www.w3.org/2000/svg">
    <g filter="url(#filter0_ddd_427_867)">
        <rect x="12" y="11" width="56" height="56" rx="24" fill="#1BB55C" />
    </g>
    <path d="M46.3607 32.6316L49 30V37.8947H41.0821L44.7243 34.2632C43.3871 32.9298 41.8035 32.2632 39.9736 32.2632C38.1085 32.2632 36.5073 32.9298 35.1701 34.2632C33.868 35.5614 33.217 37.1404 33.217 39C33.217 40.8596 33.868 42.4561 35.1701 43.7895C36.5073 45.0877 38.1085 45.7368 39.9736 45.7368C41.2757 45.7368 42.5425 45.2982 43.7742 44.4211C45.0411 43.5439 45.9032 42.4912 46.3607 41.2632H48.6833C48.1906 43.2281 47.1349 44.8421 45.5161 46.1053C43.8974 47.3684 42.0499 48 39.9736 48C37.5103 48 35.3988 47.1228 33.6393 45.3684C31.8798 43.614 31 41.4912 31 39C31 36.5088 31.8798 34.386 33.6393 32.6316C35.3988 30.8772 37.5103 30 39.9736 30C41.0293 30 42.173 30.2632 43.4047 30.7895C44.6716 31.2807 45.6569 31.8947 46.3607 32.6316Z" fill="white" />
    <defs>
        <filter id="filter0_ddd_427_867" x="0" y="0" width="80" height="80" filterUnits="userSpaceOnUse" color-interpolation-filters="sRGB">
            <feFlood flood-opacity="0" result="BackgroundImageFix" />
            <feColorMatrix in="SourceAlpha" type="matrix" values="0 0 0 0 0 0 0 0 0 0 0 0 0 0 0 0 0 0 127 0" result="hardAlpha" />
            <feOffset dy="1" />
            <feGaussianBlur stdDeviation="6" />
            <feColorMatrix type="matrix" values="0 0 0 0 0 0 0 0 0 0 0 0 0 0 0 0 0 0 0.04 0" />
            <feBlend mode="normal" in2="BackgroundImageFix" result="effect1_dropShadow_427_867" />
            <feColorMatrix in="SourceAlpha" type="matrix" values="0 0 0 0 0 0 0 0 0 0 0 0 0 0 0 0 0 0 127 0" result="hardAlpha" />
            <feOffset dy="4" />
            <feGaussianBlur stdDeviation="4" />
            <feColorMatrix type="matrix" values="0 0 0 0 0 0 0 0 0 0 0 0 0 0 0 0 0 0 0.08 0" />
            <feBlend mode="normal" in2="effect1_dropShadow_427_867" result="effect2_dropShadow_427_867" />
            <feColorMatrix in="SourceAlpha" type="matrix" values="0 0 0 0 0 0 0 0 0 0 0 0 0 0 0 0 0 0 127 0" result="hardAlpha" />
            <feOffset dy="3" />
            <feGaussianBlur stdDeviation="3" />
            <feColorMatrix type="matrix" values="0 0 0 0 0 0 0 0 0 0 0 0 0 0 0 0 0 0 0.1 0" />
            <feBlend mode="normal" in2="effect2_dropShadow_427_867" result="effect3_dropShadow_427_867" />
            <feBlend mode="normal" in="SourceGraphic" in2="effect3_dropShadow_427_867" result="shape" />
        </filter>
    </defs>
</svg>
    