<svg width="20" height="16" viewBox="0 0 20 16" fill="none" xmlns="http://www.w3.org/2000/svg">
    <path d="M17.5 0.929688C17.9427 0.929688 18.3333 1.09896 18.6719 1.4375C19.0104 1.75 19.1797 2.1276 19.1797 2.57031V14.25C19.1797 14.6927 19.0104 15.0833 18.6719 15.4219C18.3333 15.7604 17.9427 15.9297 17.5 15.9297H2.5C2.05729 15.9297 1.66667 15.7604 1.32812 15.4219C0.989583 15.0833 0.820312 14.6927 0.820312 14.25V2.57031C0.820312 2.1276 0.989583 1.75 1.32812 1.4375C1.66667 1.09896 2.05729 0.929688 2.5 0.929688H7.5V2.57031H2.5V14.25H17.5V2.57031H12.5V0.929688H17.5ZM10 11.75L6.67969 8.42969H9.17969V0.929688H10.8203V8.42969H13.3203L10 11.75Z" fill="white" />
</svg>
    