<svg width="185" height="52" viewBox="0 0 185 52" fill="none" xmlns="http://www.w3.org/2000/svg">
    <path d="M14.936 51.64C11.7787 51.64 8.96267 51.128 6.488 50.104C4.056 49.0373 2.09333 47.5867 0.6 45.752L6.232 40.888C7.55467 42.296 9.02667 43.32 10.648 43.96C12.2693 44.5573 13.8907 44.856 15.512 44.856C16.152 44.856 16.728 44.792 17.24 44.664C17.7947 44.4933 18.264 44.28 18.648 44.024C19.032 43.7253 19.3093 43.384 19.48 43C19.6933 42.5733 19.8 42.1253 19.8 41.656C19.8 40.7173 19.416 39.9707 18.648 39.416C18.2213 39.2027 17.56 38.9467 16.664 38.648C15.768 38.3067 14.616 37.944 13.208 37.56C11.032 37.0053 9.176 36.3653 7.64 35.64C6.14667 34.872 4.952 34.0187 4.056 33.08C3.288 32.184 2.69067 31.224 2.264 30.2C1.88 29.1333 1.688 27.96 1.688 26.68C1.688 25.144 2.02933 23.7573 2.712 22.52C3.39467 21.24 4.33333 20.152 5.528 19.256C6.76533 18.36 8.17333 17.6773 9.752 17.208C11.3307 16.696 12.9947 16.44 14.744 16.44C16.4933 16.44 18.2 16.6533 19.864 17.08C21.528 17.5067 23.064 18.1253 24.472 18.936C25.9227 19.704 27.1813 20.6213 28.248 21.688L23.384 27.064C22.616 26.3387 21.7413 25.6773 20.76 25.08C19.8213 24.4827 18.84 24.0133 17.816 23.672C16.792 23.3307 15.8747 23.16 15.064 23.16C14.3387 23.16 13.6773 23.224 13.08 23.352C12.5253 23.48 12.056 23.672 11.672 23.928C11.288 24.184 10.9893 24.5253 10.776 24.952C10.6053 25.336 10.52 25.7627 10.52 26.232C10.52 26.7013 10.6267 27.1493 10.84 27.576C11.096 28.0027 11.4373 28.3653 11.864 28.664C12.3333 28.92 13.016 29.2187 13.912 29.56C14.8507 29.9013 16.1093 30.2853 17.688 30.712C19.736 31.2667 21.464 31.8853 22.872 32.568C24.3227 33.2507 25.4747 34.04 26.328 34.936C27.0533 35.704 27.5867 36.5787 27.928 37.56C28.2693 38.5413 28.44 39.6293 28.44 40.824C28.44 42.9147 27.8427 44.792 26.648 46.456C25.496 48.0773 23.896 49.3573 21.848 50.296C19.8 51.192 17.496 51.64 14.936 51.64ZM43.623 51.64C39.9537 51.64 36.7537 50.8933 34.023 49.4C31.2923 47.9067 29.159 45.8587 27.623 43.256C26.087 40.6533 25.319 37.6667 25.319 34.296C25.319 31.6933 25.7457 29.304 26.599 27.128C27.4523 24.952 28.647 23.0747 30.183 21.496C31.719 19.8747 33.5323 18.6373 35.623 17.784C37.7563 16.888 40.0603 16.44 42.535 16.44C44.839 16.44 46.9723 16.8667 48.935 17.72C50.8977 18.5307 52.583 19.704 53.991 21.24C55.4417 22.7333 56.551 24.504 57.319 26.552C58.087 28.6 58.4283 30.84 58.343 33.272L58.279 36.088H31.079L29.607 30.52H50.791L49.767 31.672V30.264C49.6817 29.112 49.2977 28.0667 48.615 27.128C47.975 26.1893 47.143 25.464 46.119 24.952C45.095 24.44 43.943 24.184 42.663 24.184C40.7857 24.184 39.1857 24.5467 37.863 25.272C36.583 25.9973 35.6017 27.064 34.919 28.472C34.2363 29.88 33.895 31.5867 33.895 33.592C33.895 35.64 34.3217 37.4107 35.175 38.904C36.071 40.3973 37.3083 41.5707 38.887 42.424C40.5083 43.2347 42.407 43.64 44.583 43.64C46.0763 43.64 47.4417 43.4053 48.679 42.936C49.9163 42.4667 51.239 41.656 52.647 40.504L56.999 46.584C55.7617 47.6933 54.3963 48.632 52.903 49.4C51.4097 50.1253 49.8737 50.68 48.295 51.064C46.7163 51.448 45.159 51.64 43.623 51.64ZM57.699 51V17.144H66.403L66.659 24.056L64.867 24.824C65.3363 23.288 66.1683 21.9013 67.363 20.664C68.6003 19.384 70.0723 18.36 71.779 17.592C73.4857 16.824 75.2777 16.44 77.155 16.44C79.715 16.44 81.8483 16.952 83.555 17.976C85.3043 19 86.6057 20.5573 87.459 22.648C88.355 24.696 88.803 27.2347 88.803 30.264V51H79.715V30.968C79.715 29.432 79.5017 28.152 79.075 27.128C78.6483 26.104 77.987 25.3573 77.091 24.888C76.2377 24.376 75.171 24.1627 73.891 24.248C72.867 24.248 71.907 24.4187 71.011 24.76C70.1577 25.0587 69.411 25.5067 68.771 26.104C68.1737 26.7013 67.683 27.384 67.299 28.152C66.9577 28.92 66.787 29.752 66.787 30.648V51H62.307C61.3257 51 60.451 51 59.683 51C58.915 51 58.2537 51 57.699 51ZM93.4155 51V8.568H102.503V51H93.4155ZM87.0795 25.272V17.144H109.415V25.272H87.0795ZM108.747 51V17.144H117.835V51H108.747ZM113.227 10.168C111.478 10.168 110.112 9.74133 109.131 8.888C108.15 8.03466 107.659 6.81866 107.659 5.24C107.659 3.78933 108.15 2.616 109.131 1.72C110.155 0.78133 111.52 0.311996 113.227 0.311996C114.976 0.311996 116.342 0.759997 117.323 1.656C118.304 2.50933 118.795 3.704 118.795 5.24C118.795 6.73333 118.283 7.928 117.259 8.824C116.278 9.72 114.934 10.168 113.227 10.168ZM135.925 51.64C132.469 51.64 129.376 50.8933 126.645 49.4C123.957 47.864 121.824 45.7733 120.245 43.128C118.709 40.4827 117.941 37.4533 117.941 34.04C117.941 30.6267 118.709 27.6187 120.245 25.016C121.824 22.3707 123.957 20.28 126.645 18.744C129.376 17.208 132.469 16.44 135.925 16.44C139.339 16.44 142.389 17.208 145.077 18.744C147.808 20.28 149.941 22.3707 151.477 25.016C153.013 27.6187 153.781 30.6267 153.781 34.04C153.781 37.4533 153.013 40.4827 151.477 43.128C149.941 45.7733 147.808 47.864 145.077 49.4C142.389 50.8933 139.339 51.64 135.925 51.64ZM135.925 43.704C137.589 43.704 139.083 43.2987 140.405 42.488C141.728 41.6347 142.752 40.4827 143.477 39.032C144.245 37.5387 144.629 35.8747 144.629 34.04C144.629 32.1627 144.245 30.4987 143.477 29.048C142.752 27.5547 141.728 26.4027 140.405 25.592C139.083 24.7387 137.589 24.312 135.925 24.312C134.219 24.312 132.704 24.7387 131.381 25.592C130.059 26.4453 129.013 27.5973 128.245 29.048C127.477 30.4987 127.115 32.1627 127.157 34.04C127.115 35.8747 127.477 37.5387 128.245 39.032C129.013 40.4827 130.059 41.6347 131.381 42.488C132.704 43.2987 134.219 43.704 135.925 43.704ZM153.259 51V17.144H161.963L162.219 24.056L160.427 24.824C160.896 23.288 161.728 21.9013 162.923 20.664C164.16 19.384 165.632 18.36 167.339 17.592C169.046 16.824 170.838 16.44 172.715 16.44C175.275 16.44 177.408 16.952 179.115 17.976C180.864 19 182.166 20.5573 183.019 22.648C183.915 24.696 184.363 27.2347 184.363 30.264V51H175.275V30.968C175.275 29.432 175.062 28.152 174.635 27.128C174.208 26.104 173.547 25.3573 172.651 24.888C171.798 24.376 170.731 24.1627 169.451 24.248C168.427 24.248 167.467 24.4187 166.571 24.76C165.718 25.0587 164.971 25.5067 164.331 26.104C163.734 26.7013 163.243 27.384 162.859 28.152C162.518 28.92 162.347 29.752 162.347 30.648V51H157.867C156.886 51 156.011 51 155.243 51C154.475 51 153.814 51 153.259 51Z" fill="#1BB55C" />
</svg>
    