<svg width="64" height="46" viewBox="0 0 64 46" fill="none" xmlns="http://www.w3.org/2000/svg">
    <path d="M63.4909 12.6171C45.7739 -4.20879 18.2189 -4.20263 0.508915 12.6171C-0.157085 13.2496 -0.170085 14.3206 0.473915 14.9767L3.89792 18.4647C4.51192 19.091 5.49992 19.1044 6.13792 18.5037C20.7299 4.77764 43.2679 4.77455 57.8629 18.5037C58.5009 19.1044 59.4889 19.09 60.103 18.4647L63.527 14.9767C64.17 14.3206 64.1569 13.2496 63.4909 12.6171ZM31.9999 32.8571C28.4649 32.8571 25.5999 35.7989 25.5999 39.4286C25.5999 43.0583 28.4649 46 31.9999 46C35.5349 46 38.3999 43.0583 38.3999 39.4286C38.3999 35.7989 35.5349 32.8571 31.9999 32.8571ZM52.2669 24.2742C40.7409 13.8082 23.2459 13.8195 11.7329 24.2742C11.0429 24.9006 11.0209 25.9879 11.6759 26.6513L15.1199 30.1413C15.7199 30.7492 16.6859 30.7902 17.3249 30.2234C25.7199 22.7721 38.2989 22.7885 46.6739 30.2234C47.3129 30.7902 48.2789 30.7502 48.8789 30.1413L52.3229 26.6513C52.9789 25.9879 52.9559 24.8996 52.2669 24.2742Z" fill="black" />
</svg>
    