<svg width="42" height="40" viewBox="0 0 42 40" fill="none" xmlns="http://www.w3.org/2000/svg">
    <path d="M10.952 39.48C8.584 39.48 6.472 39.096 4.616 38.328C2.792 37.528 1.32 36.44 0.2 35.064L4.424 31.416C5.416 32.472 6.52 33.24 7.736 33.72C8.952 34.168 10.168 34.392 11.384 34.392C11.864 34.392 12.296 34.344 12.68 34.248C13.096 34.12 13.448 33.96 13.736 33.768C14.024 33.544 14.232 33.288 14.36 33C14.52 32.68 14.6 32.344 14.6 31.992C14.6 31.288 14.312 30.728 13.736 30.312C13.416 30.152 12.92 29.96 12.248 29.736C11.576 29.48 10.712 29.208 9.656 28.92C8.024 28.504 6.632 28.024 5.48 27.48C4.36 26.904 3.464 26.264 2.792 25.56C2.216 24.888 1.768 24.168 1.448 23.4C1.16 22.6 1.016 21.72 1.016 20.76C1.016 19.608 1.272 18.568 1.784 17.64C2.296 16.68 3 15.864 3.896 15.192C4.824 14.52 5.88 14.008 7.064 13.656C8.248 13.272 9.496 13.08 10.808 13.08C12.12 13.08 13.4 13.24 14.648 13.56C15.896 13.88 17.048 14.344 18.104 14.952C19.192 15.528 20.136 16.216 20.936 17.016L17.288 21.048C16.712 20.504 16.056 20.008 15.32 19.56C14.616 19.112 13.88 18.76 13.112 18.504C12.344 18.248 11.656 18.12 11.048 18.12C10.504 18.12 10.008 18.168 9.56 18.264C9.144 18.36 8.792 18.504 8.504 18.696C8.216 18.888 7.992 19.144 7.832 19.464C7.704 19.752 7.64 20.072 7.64 20.424C7.64 20.776 7.72 21.112 7.88 21.432C8.072 21.752 8.328 22.024 8.648 22.248C9 22.44 9.512 22.664 10.184 22.92C10.888 23.176 11.832 23.464 13.016 23.784C14.552 24.2 15.848 24.664 16.904 25.176C17.992 25.688 18.856 26.28 19.496 26.952C20.04 27.528 20.44 28.184 20.696 28.92C20.952 29.656 21.08 30.472 21.08 31.368C21.08 32.936 20.632 34.344 19.736 35.592C18.872 36.808 17.672 37.768 16.136 38.472C14.6 39.144 12.872 39.48 10.952 39.48ZM22.8672 39V7.176H29.6832V39H22.8672ZM18.1152 19.704V13.608H34.8672V19.704H18.1152ZM34.3659 39V13.608H41.1819V39H34.3659ZM37.7259 8.376C36.4139 8.376 35.3899 8.056 34.6539 7.416C33.9179 6.776 33.5499 5.864 33.5499 4.68C33.5499 3.592 33.9179 2.712 34.6539 2.04C35.4219 1.336 36.4459 0.983997 37.7259 0.983997C39.0379 0.983997 40.0619 1.32 40.7979 1.992C41.5339 2.632 41.9019 3.528 41.9019 4.68C41.9019 5.8 41.5179 6.696 40.7499 7.368C40.0139 8.04 39.0059 8.376 37.7259 8.376Z" fill="#1BB55C" />
</svg>