<svg width="29" height="29" viewBox="0 0 29 29" fill="none" xmlns="http://www.w3.org/2000/svg">
    <path d="M23.5625 0C20.5662 0 18.125 2.44121 18.125 5.4375C18.125 8.43379 20.5662 10.875 23.5625 10.875C26.5588 10.875 29 8.43379 29 5.4375C29 2.44121 26.5588 0 23.5625 0ZM23.5625 7.25C22.56 7.25 21.75 6.44004 21.75 5.4375C21.75 4.43496 22.56 3.625 23.5625 3.625C24.565 3.625 25.375 4.43496 25.375 5.4375C25.375 6.44004 24.565 7.25 23.5625 7.25ZM14.5 6.34375C14.5 2.8377 11.6623 0 8.15625 0C4.6502 0 1.8125 2.8377 1.8125 6.34375V15.7744C0.69668 17.1734 0 18.918 0 20.8438C0 25.3467 3.65332 29 8.15625 29C12.6592 29 16.3125 25.3467 16.3125 20.8438C16.3125 18.918 15.6158 17.1678 14.5 15.7744V6.34375ZM8.15625 25.375C5.6584 25.375 3.625 23.3416 3.625 20.8438C3.625 19.3994 4.31602 18.074 5.4375 17.2301V6.34375C5.4375 4.84277 6.65527 3.625 8.15625 3.625C9.65723 3.625 10.875 4.84277 10.875 6.34375V17.2301C11.9965 18.0684 12.6875 19.3994 12.6875 20.8438C12.6875 23.3416 10.6541 25.375 8.15625 25.375ZM9.0625 18.2893V17.2188C9.0625 16.7203 8.65469 16.3125 8.15625 16.3125C7.65781 16.3125 7.25 16.7203 7.25 17.2188V18.2893C6.19648 18.6631 5.4375 19.66 5.4375 20.8438C5.4375 22.3447 6.65527 23.5625 8.15625 23.5625C9.65723 23.5625 10.875 22.3447 10.875 20.8438C10.875 19.66 10.116 18.6631 9.0625 18.2893Z" fill="black" />
</svg>
    